<svg width="18" height="18" viewBox="0 0 18 18" fill="none" xmlns="http://www.w3.org/2000/svg">
<path fill-rule="evenodd" clip-rule="evenodd" d="M11.5145 8.93084L17.5145 2.88469C17.7914 2.60777 17.7914 2.19238 17.5145 1.91546L16.5914 0.946229C16.3145 0.669306 15.8991 0.669306 15.6222 0.946229L9.57602 6.99238C9.39141 7.177 9.11448 7.177 8.92987 6.99238L2.88371 0.900075C2.60679 0.623152 2.19141 0.623152 1.91448 0.900075L0.945252 1.86931C0.668329 2.14623 0.668329 2.56161 0.945252 2.83854L6.99141 8.88469C7.17602 9.0693 7.17602 9.34623 6.99141 9.53084L0.899099 15.6231C0.622175 15.9001 0.622175 16.3155 0.899099 16.5924L1.86833 17.5616C2.14525 17.8385 2.56064 17.8385 2.83756 17.5616L8.88371 11.5155C9.06833 11.3308 9.34525 11.3308 9.52987 11.5155L15.576 17.5616C15.8529 17.8385 16.2683 17.8385 16.5453 17.5616L17.5145 16.5924C17.7914 16.3155 17.7914 15.9001 17.5145 15.6231L11.5145 9.577C11.3299 9.39238 11.3299 9.11546 11.5145 8.93084Z" fill="#3E3E3C"/>
</svg>
